<svg enable-background="new 0 0 223.972 55.993" height="55.993" viewBox="0 0 223.972 55.993" width="223.972" xmlns="http://www.w3.org/2000/svg"><g fill="#0d0e0e"><path d="m43.275 9.644c.437.277.948.437 1.641.437.917 0 1.674-.469 1.674-1.524 0-1.461-3.411-1.642-3.411-3.592 0-1.194 1.045-1.94 2.356-1.94.362 0 .948.053 1.46.245l-.117.672c-.33-.182-.853-.277-1.354-.277-.767 0-1.609.32-1.609 1.279 0 1.493 3.411 1.503 3.411 3.678 0 1.503-1.289 2.1-2.441 2.1-.725 0-1.289-.149-1.684-.32z"/><path d="m53.103 5.88c-.362-.16-.799-.277-1.162-.277-1.311 0-2.047.949-2.047 2.27 0 1.237.746 2.271 1.972 2.271.427 0 .821-.096 1.226-.245l.064.629c-.459.16-.885.192-1.396.192-1.749 0-2.601-1.333-2.601-2.846 0-1.674 1.077-2.846 2.687-2.846.65 0 1.119.149 1.311.213z"/><path d="m55.128 2.597h.672v3.475h.022c.288-.597.895-1.045 1.695-1.045 1.461 0 1.855.97 1.855 2.313v3.251h-.671v-3.239c0-.938-.181-1.748-1.29-1.748-1.194 0-1.61 1.13-1.61 2.079v2.91h-.671v-7.996z"/><path d="m67.473 10.592h-.81l-1.482-4.701h-.022l-1.482 4.701h-.81l-1.748-5.437h.735l1.428 4.702h.022l1.514-4.702h.81l1.439 4.702h.021l1.503-4.702h.672z"/><path d="m74.658 10.422c-.469.192-1.077.298-1.578.298-1.801 0-2.473-1.215-2.473-2.846 0-1.663.917-2.846 2.292-2.846 1.535 0 2.164 1.237 2.164 2.697v.341h-3.721c0 1.152.619 2.079 1.791 2.079.49 0 1.205-.203 1.525-.405zm-.331-2.932c0-.949-.384-1.887-1.385-1.887-.992 0-1.599.991-1.599 1.887z"/><path d="m77.844 3.706h-.671v-.895h.671zm-.671 1.45h.671v5.437h-.671z"/><path d="m79.87 10.028 3.273-4.297h-3.145v-.575h3.923v.576l-3.272 4.285h3.272v.576h-4.05v-.565z"/><path d="m89.581 10.422c-.469.192-1.077.298-1.578.298-1.801 0-2.473-1.215-2.473-2.846 0-1.663.917-2.846 2.292-2.846 1.535 0 2.164 1.237 2.164 2.697v.341h-3.721c0 1.152.619 2.079 1.791 2.079.49 0 1.205-.203 1.525-.405zm-.331-2.932c0-.949-.384-1.887-1.385-1.887-.992 0-1.599.991-1.599 1.887z"/><path d="m92.096 6.371c0-.597 0-.821-.042-1.215h.671v1.044h.021c.245-.607.704-1.172 1.397-1.172.16 0 .352.032.469.064v.704c-.139-.043-.32-.064-.49-.064-1.066 0-1.354 1.194-1.354 2.175v2.687h-.672z"/><path d="m97.149 3.706h-.672v-.895h.672zm-.672 1.45h.672v5.437h-.672z"/><path d="m99.26 9.804c.405.203.896.341 1.418.341.64 0 1.204-.352 1.204-.97 0-1.289-2.612-1.087-2.612-2.665 0-1.077.874-1.482 1.77-1.482.288 0 .864.064 1.343.246l-.064.586c-.352-.16-.831-.256-1.204-.256-.693 0-1.173.213-1.173.906 0 1.013 2.676.885 2.676 2.665 0 1.152-1.077 1.545-1.898 1.545-.522 0-1.045-.064-1.525-.255z"/><path d="m108.192 5.88c-.362-.16-.799-.277-1.162-.277-1.311 0-2.047.949-2.047 2.27 0 1.237.746 2.271 1.972 2.271.427 0 .821-.096 1.226-.245l.064.629c-.458.16-.885.192-1.396.192-1.749 0-2.601-1.333-2.601-2.846 0-1.674 1.077-2.846 2.687-2.846.65 0 1.119.149 1.311.213z"/><path d="m110.217 2.597h.672v3.475h.021c.288-.597.896-1.045 1.695-1.045 1.461 0 1.855.97 1.855 2.313v3.251h-.671v-3.239c0-.938-.181-1.748-1.289-1.748-1.194 0-1.61 1.13-1.61 2.079v2.91h-.672v-7.996z"/><path d="m120.622 10.422c-.469.192-1.077.298-1.578.298-1.801 0-2.473-1.215-2.473-2.846 0-1.663.917-2.846 2.292-2.846 1.535 0 2.164 1.237 2.164 2.697v.341h-3.721c0 1.152.619 2.079 1.791 2.079.49 0 1.205-.203 1.525-.405zm-.331-2.932c0-.949-.384-1.887-1.385-1.887-.992 0-1.599.991-1.599 1.887z"/><path d="m126.687 3.152h3.645v.64h-2.91v2.655h2.761v.64h-2.761v2.868h3.038v.64h-3.773z"/><path d="m133.445 3.706h-.672v-.895h.672zm-.671 1.45h.672v5.437h-.672z"/><path d="m140.278 10.592h-.672v-.863h-.021c-.363.693-.917.991-1.695.991-1.492 0-2.238-1.236-2.238-2.846 0-1.652.64-2.846 2.238-2.846 1.066 0 1.599.778 1.695 1.045h.021v-3.476h.672zm-2.281-.447c1.194 0 1.609-1.28 1.609-2.271s-.416-2.27-1.609-2.27c-1.279 0-1.61 1.215-1.61 2.27 0 1.056.33 2.271 1.61 2.271z"/><path d="m147.036 10.145c0 1.514-.683 2.75-2.548 2.75-.714 0-1.364-.203-1.642-.288l.053-.671c.415.214 1.013.384 1.599.384 1.727 0 1.876-1.258 1.876-2.793h-.022c-.362.789-.959 1.066-1.652 1.066-1.738 0-2.292-1.514-2.292-2.718 0-1.652.64-2.846 2.238-2.846.725 0 1.194.096 1.695.746h.021v-.619h.672v4.989zm-2.324-.128c1.215 0 1.652-1.152 1.652-2.143 0-1.311-.384-2.27-1.609-2.27-1.279 0-1.61 1.215-1.61 2.27 0 1.066.426 2.143 1.567 2.143z"/><path d="m153.134 10.422c-.469.192-1.077.298-1.578.298-1.801 0-2.473-1.215-2.473-2.846 0-1.663.917-2.846 2.292-2.846 1.535 0 2.164 1.237 2.164 2.697v.341h-3.721c0 1.152.619 2.079 1.791 2.079.49 0 1.205-.203 1.525-.405zm-.331-2.932c0-.949-.384-1.887-1.385-1.887-.992 0-1.6.991-1.6 1.887z"/><path d="m155.649 6.435c0-.416 0-.842-.042-1.28h.65v.97h.022c.223-.49.628-1.098 1.758-1.098 1.344 0 1.855.895 1.855 2.089v3.475h-.671v-3.303c0-1.023-.362-1.684-1.29-1.684-1.226 0-1.61 1.077-1.61 1.983v3.006h-.671v-4.158z"/><path d="m164.528 5.028c1.759 0 2.537 1.364 2.537 2.846s-.778 2.846-2.537 2.846c-1.758 0-2.537-1.364-2.537-2.846s.779-2.846 2.537-2.846zm0 5.117c1.173 0 1.801-1.013 1.801-2.271s-.628-2.27-1.801-2.27c-1.172 0-1.801 1.013-1.801 2.27 0 1.258.629 2.271 1.801 2.271z"/><path d="m168.75 9.804c.405.203.895.341 1.418.341.64 0 1.204-.352 1.204-.97 0-1.289-2.612-1.087-2.612-2.665 0-1.077.874-1.482 1.77-1.482.288 0 .864.064 1.343.246l-.064.586c-.352-.16-.831-.256-1.204-.256-.693 0-1.173.213-1.173.906 0 1.013 2.675.885 2.675 2.665 0 1.152-1.077 1.545-1.897 1.545-.522 0-1.045-.064-1.524-.255z"/><path d="m173.728 9.804c.405.203.895.341 1.418.341.64 0 1.204-.352 1.204-.97 0-1.289-2.612-1.087-2.612-2.665 0-1.077.874-1.482 1.77-1.482.288 0 .864.064 1.343.246l-.064.586c-.352-.16-.831-.256-1.204-.256-.693 0-1.173.213-1.173.906 0 1.013 2.675.885 2.675 2.665 0 1.152-1.077 1.545-1.897 1.545-.522 0-1.045-.064-1.524-.255z"/><path d="m182.768 10.422c-.469.192-1.077.298-1.578.298-1.801 0-2.473-1.215-2.473-2.846 0-1.663.917-2.846 2.292-2.846 1.535 0 2.164 1.237 2.164 2.697v.341h-3.721c0 1.152.619 2.079 1.791 2.079.49 0 1.205-.203 1.525-.405zm-.331-2.932c0-.949-.384-1.887-1.385-1.887-.992 0-1.599.991-1.599 1.887z"/><path d="m185.283 6.435c0-.416 0-.842-.042-1.28h.65v.97h.021c.223-.49.628-1.098 1.758-1.098 1.344 0 1.855.895 1.855 2.089v3.475h-.672v-3.303c0-1.023-.362-1.684-1.29-1.684-1.226 0-1.61 1.077-1.61 1.983v3.006h-.672v-4.158z"/><path d="m191.626 9.804c.405.203.896.341 1.418.341.64 0 1.204-.352 1.204-.97 0-1.289-2.612-1.087-2.612-2.665 0-1.077.874-1.482 1.77-1.482.288 0 .864.064 1.343.246l-.064.586c-.352-.16-.831-.256-1.204-.256-.693 0-1.173.213-1.173.906 0 1.013 2.675.885 2.675 2.665 0 1.152-1.077 1.545-1.897 1.545-.522 0-1.045-.064-1.524-.255z"/><path d="m200.559 5.88c-.362-.16-.799-.277-1.162-.277-1.311 0-2.047.949-2.047 2.27 0 1.237.746 2.271 1.972 2.271.427 0 .821-.096 1.226-.245l.064.629c-.459.16-.885.192-1.396.192-1.749 0-2.601-1.333-2.601-2.846 0-1.674 1.077-2.846 2.687-2.846.65 0 1.119.149 1.311.213z"/><path d="m202.584 2.597h.671v3.475h.022c.288-.597.895-1.045 1.695-1.045 1.461 0 1.855.97 1.855 2.313v3.251h-.672v-3.239c0-.938-.182-1.748-1.289-1.748-1.194 0-1.61 1.13-1.61 2.079v2.91h-.671v-7.996z"/><path d="m212.465 9.718h-.021c-.298.65-1.056 1.002-1.727 1.002-1.545 0-1.791-1.045-1.791-1.535 0-1.822 1.941-1.907 3.348-1.907h.128v-.278c0-.928-.33-1.396-1.236-1.396-.565 0-1.097.128-1.6.447v-.65c.416-.203 1.12-.373 1.6-.373 1.343 0 1.908.608 1.908 2.026v2.399c0 .437 0 .767.054 1.14h-.662v-.875zm-.064-1.865h-.191c-1.162 0-2.547.118-2.547 1.312 0 .714.511.981 1.129.981 1.577 0 1.609-1.375 1.609-1.962z"/><path d="m215.962 5.731h-1.097v-.575h1.097v-.394c0-1.14.043-2.292 1.44-2.292.212 0 .501.032.628.107l-.043.586c-.139-.075-.341-.117-.533-.117-.917 0-.82.991-.82 1.641v.469h1.225v.576h-1.225v4.861h-.673v-4.862z"/><path d="m222.229 5.731h-1.236v3.519c0 .49.182.895.726.895.255 0 .426-.053.617-.128l.043.554c-.16.064-.49.149-.821.149-1.193 0-1.236-.821-1.236-1.812v-3.177h-1.065v-.575h1.065v-1.311l.672-.235v1.545h1.236v.576z"/><path d="m48.498 18.687c-.469-.245-1.141-.32-1.663-.32-1.929 0-3.017 1.365-3.017 3.209 0 1.876 1.056 3.208 3.017 3.208.49 0 1.237-.064 1.663-.32l.042.64c-.405.246-1.236.32-1.706.32-2.345 0-3.752-1.546-3.752-3.848 0-2.26 1.45-3.848 3.752-3.848.437 0 1.322.075 1.706.277z"/><path d="m53.113 19.732c1.759 0 2.538 1.364 2.538 2.846s-.778 2.846-2.538 2.846c-1.758 0-2.537-1.364-2.537-2.846s.779-2.846 2.537-2.846zm0 5.117c1.173 0 1.801-1.013 1.801-2.271s-.628-2.27-1.801-2.27c-1.172 0-1.801 1.013-1.801 2.27 0 1.258.629 2.271 1.801 2.271z"/><path d="m57.75 21.139c0-.416 0-.842-.042-1.28h.65v.97h.022c.223-.49.628-1.098 1.758-1.098 1.344 0 1.855.895 1.855 2.089v3.475h-.671v-3.305c0-1.023-.362-1.684-1.29-1.684-1.226 0-1.61 1.077-1.61 1.983v3.006h-.672z"/><path d="m64.967 20.435h-1.098v-.576h1.098v-.394c0-1.14.042-2.292 1.439-2.292.214 0 .501.032.629.106l-.042.587c-.139-.075-.341-.117-.533-.117-.916 0-.821.991-.821 1.641v.469h1.226v.576h-1.226v4.861h-.671v-4.861z"/><path d="m72.536 25.125c-.469.192-1.077.298-1.578.298-1.801 0-2.473-1.215-2.473-2.846 0-1.663.917-2.846 2.292-2.846 1.535 0 2.164 1.237 2.164 2.697v.341h-3.721c0 1.152.619 2.079 1.791 2.079.49 0 1.205-.203 1.525-.405zm-.331-2.931c0-.949-.384-1.887-1.385-1.887-.992 0-1.6.991-1.6 1.887zm-1.119-4.435h.842l-1.344 1.535h-.49z"/><path d="m79.358 25.296h-.672v-.864h-.021c-.363.693-.917.991-1.695.991-1.492 0-2.238-1.236-2.238-2.846 0-1.652.64-2.846 2.238-2.846 1.066 0 1.599.778 1.695 1.045h.021v-3.475h.672zm-2.282-.447c1.194 0 1.609-1.28 1.609-2.271s-.416-2.27-1.609-2.27c-1.279 0-1.61 1.215-1.61 2.27s.331 2.271 1.61 2.271z"/><path d="m85.455 25.125c-.469.192-1.077.298-1.578.298-1.801 0-2.473-1.215-2.473-2.846 0-1.663.917-2.846 2.292-2.846 1.535 0 2.164 1.237 2.164 2.697v.341h-3.721c0 1.152.619 2.079 1.791 2.079.49 0 1.205-.203 1.525-.405zm-.331-2.931c0-.949-.384-1.887-1.385-1.887-.992 0-1.599.991-1.599 1.887zm-1.119-4.435h.842l-1.343 1.535h-.49z"/><path d="m87.971 21.074c0-.597 0-.821-.042-1.215h.671v1.045h.021c.245-.608.704-1.173 1.397-1.173.16 0 .352.032.469.064v.704c-.139-.043-.32-.064-.49-.064-1.066 0-1.354 1.194-1.354 2.175v2.687h-.672z"/><path d="m95.475 24.422h-.022c-.298.65-1.055 1.002-1.727 1.002-1.545 0-1.79-1.045-1.79-1.535 0-1.822 1.94-1.907 3.347-1.907h.128v-.277c0-.928-.331-1.396-1.237-1.396-.565 0-1.098.128-1.599.447v-.65c.416-.203 1.119-.373 1.599-.373 1.343 0 1.908.608 1.908 2.026v2.399c0 .437 0 .767.053 1.14h-.661v-.876zm-.064-1.865h-.192c-1.162 0-2.548.117-2.548 1.311 0 .714.512.981 1.13.981 1.577 0 1.61-1.375 1.61-1.962z"/><path d="m100.859 20.435h-1.237v3.518c0 .49.182.895.725.895.256 0 .427-.053.619-.128l.042.554c-.16.064-.49.149-.821.149-1.194 0-1.237-.821-1.237-1.812v-3.177h-1.066v-.576h1.066v-1.311l.671-.235v1.546h1.237v.577z"/><path d="m103.566 18.409h-.672v-.895h.672zm-.672 1.45h.672v5.437h-.672z"/><path d="m108.213 19.732c1.759 0 2.537 1.364 2.537 2.846s-.778 2.846-2.537 2.846c-1.758 0-2.537-1.364-2.537-2.846s.778-2.846 2.537-2.846zm0 5.117c1.173 0 1.801-1.013 1.801-2.271s-.628-2.27-1.801-2.27c-1.172 0-1.801 1.013-1.801 2.27-.001 1.258.628 2.271 1.801 2.271z"/><path d="m112.85 21.139c0-.416 0-.842-.042-1.28h.65v.97h.021c.223-.49.628-1.098 1.758-1.098 1.344 0 1.855.895 1.855 2.089v3.475h-.672v-3.305c0-1.023-.362-1.684-1.289-1.684-1.226 0-1.61 1.077-1.61 1.983v3.006h-.672v-4.156z"/><path d="m122.881 24.507c.405.203.895.341 1.418.341.64 0 1.204-.352 1.204-.97 0-1.289-2.612-1.087-2.612-2.665 0-1.077.874-1.482 1.77-1.482.288 0 .864.064 1.343.245l-.064.587c-.352-.16-.831-.256-1.204-.256-.693 0-1.173.213-1.173.906 0 1.013 2.675.885 2.675 2.665 0 1.152-1.077 1.546-1.897 1.546-.522 0-1.045-.064-1.524-.255z"/><path d="m132.517 24.017c0 .416 0 .842.043 1.279h-.651v-.97h-.021c-.224.49-.629 1.097-1.759 1.097-1.343 0-1.855-.896-1.855-2.089v-3.475h.671v3.305c0 1.024.363 1.685 1.29 1.685 1.226 0 1.609-1.077 1.609-1.983v-3.006h.672v4.157z"/><path d="m135.704 18.409h-.671v-.895h.671zm-.671 1.45h.671v5.437h-.671z"/><path d="m137.815 24.507c.405.203.895.341 1.418.341.64 0 1.204-.352 1.204-.97 0-1.289-2.612-1.087-2.612-2.665 0-1.077.874-1.482 1.77-1.482.288 0 .864.064 1.343.245l-.064.587c-.352-.16-.831-.256-1.204-.256-.693 0-1.173.213-1.173.906 0 1.013 2.676.885 2.676 2.665 0 1.152-1.077 1.546-1.898 1.546-.522 0-1.045-.064-1.525-.255z"/><path d="m142.793 24.507c.405.203.896.341 1.418.341.64 0 1.204-.352 1.204-.97 0-1.289-2.612-1.087-2.612-2.665 0-1.077.874-1.482 1.77-1.482.288 0 .864.064 1.343.245l-.064.587c-.352-.16-.831-.256-1.204-.256-.693 0-1.173.213-1.173.906 0 1.013 2.676.885 2.676 2.665 0 1.152-1.077 1.546-1.898 1.546-.522 0-1.045-.064-1.525-.255z"/><path d="m151.832 25.125c-.469.192-1.077.298-1.578.298-1.801 0-2.473-1.215-2.473-2.846 0-1.663.917-2.846 2.292-2.846 1.535 0 2.164 1.237 2.164 2.697v.341h-3.721c0 1.152.619 2.079 1.791 2.079.49 0 1.205-.203 1.525-.405zm-.33-2.931c0-.949-.384-1.887-1.385-1.887-.992 0-1.6.991-1.6 1.887z"/><path d="m48.498 33.39c-.469-.245-1.141-.32-1.663-.32-1.929 0-3.017 1.365-3.017 3.209 0 1.876 1.056 3.208 3.017 3.208.49 0 1.237-.064 1.663-.32l.042.64c-.405.246-1.236.32-1.706.32-2.345 0-3.752-1.545-3.752-3.848 0-2.26 1.45-3.848 3.752-3.848.437 0 1.322.074 1.706.277z"/><path d="m53.113 34.435c1.759 0 2.538 1.364 2.538 2.846s-.778 2.846-2.538 2.846c-1.758 0-2.537-1.364-2.537-2.846s.779-2.846 2.537-2.846zm0 5.117c1.173 0 1.801-1.013 1.801-2.271s-.628-2.27-1.801-2.27c-1.172 0-1.801 1.013-1.801 2.27 0 1.258.629 2.271 1.801 2.271z"/><path d="m57.75 35.842c0-.416 0-.842-.042-1.28h.65v.97h.022c.223-.49.628-1.098 1.758-1.098 1.344 0 1.855.895 1.855 2.089v3.477h-.671v-3.305c0-1.023-.362-1.684-1.29-1.684-1.226 0-1.61 1.077-1.61 1.983v3.006h-.672z"/><path d="m64.967 35.138h-1.098v-.576h1.098v-.394c0-1.14.042-2.292 1.439-2.292.214 0 .501.032.629.107l-.042.586c-.139-.075-.341-.117-.533-.117-.916 0-.821.991-.821 1.641v.469h1.226v.576h-1.226v4.862h-.671v-4.862z"/><path d="m72.536 39.829c-.469.192-1.077.298-1.578.298-1.801 0-2.473-1.215-2.473-2.846 0-1.663.917-2.846 2.292-2.846 1.535 0 2.164 1.237 2.164 2.697v.341h-3.721c0 1.152.619 2.079 1.791 2.079.49 0 1.205-.203 1.525-.405zm-.331-2.931c0-.949-.384-1.887-1.385-1.887-.992 0-1.6.991-1.6 1.887z"/><path d="m79.358 40h-.672v-.864h-.021c-.363.693-.917.991-1.695.991-1.492 0-2.238-1.236-2.238-2.846 0-1.652.64-2.846 2.238-2.846 1.066 0 1.599.778 1.695 1.045h.021v-3.475h.672zm-2.282-.448c1.194 0 1.609-1.28 1.609-2.271s-.416-2.27-1.609-2.27c-1.279 0-1.61 1.215-1.61 2.27 0 1.056.331 2.271 1.61 2.271z"/><path d="m85.455 39.829c-.469.192-1.077.298-1.578.298-1.801 0-2.473-1.215-2.473-2.846 0-1.663.917-2.846 2.292-2.846 1.535 0 2.164 1.237 2.164 2.697v.341h-3.721c0 1.152.619 2.079 1.791 2.079.49 0 1.205-.203 1.525-.405zm-.331-2.931c0-.949-.384-1.887-1.385-1.887-.992 0-1.599.991-1.599 1.887z"/><path d="m87.971 35.778c0-.597 0-.821-.042-1.215h.671v1.045h.021c.245-.607.704-1.172 1.397-1.172.16 0 .352.032.469.064v.704c-.139-.043-.32-.064-.49-.064-1.066 0-1.354 1.194-1.354 2.175v2.685h-.672z"/><path d="m95.475 39.126h-.022c-.298.65-1.055 1.002-1.727 1.002-1.545 0-1.79-1.045-1.79-1.535 0-1.822 1.94-1.907 3.347-1.907h.128v-.277c0-.928-.331-1.396-1.237-1.396-.565 0-1.098.128-1.599.447v-.65c.416-.203 1.119-.373 1.599-.373 1.343 0 1.908.608 1.908 2.025v2.399c0 .437 0 .767.053 1.14h-.661v-.875zm-.064-1.866h-.192c-1.162 0-2.548.118-2.548 1.312 0 .714.512.981 1.13.981 1.577 0 1.61-1.375 1.61-1.962z"/><path d="m98.012 39.435 3.273-4.297h-3.145v-.576h3.923v.576l-3.272 4.285h3.272v.577h-4.05v-.565z"/><path d="m104.749 33.113h-.672v-.895h.672zm-.671 1.45h.672v5.437h-.672z"/><path d="m109.396 34.435c1.759 0 2.537 1.364 2.537 2.846s-.778 2.846-2.537 2.846c-1.758 0-2.537-1.364-2.537-2.846s.779-2.846 2.537-2.846zm0 5.117c1.173 0 1.801-1.013 1.801-2.271s-.628-2.27-1.801-2.27c-1.172 0-1.801 1.013-1.801 2.27 0 1.258.629 2.271 1.801 2.271z"/><path d="m114.033 35.842c0-.416 0-.842-.042-1.28h.65v.97h.021c.223-.49.628-1.098 1.758-1.098 1.344 0 1.855.895 1.855 2.089v3.477h-.672v-3.305c0-1.023-.362-1.684-1.289-1.684-1.226 0-1.61 1.077-1.61 1.983v3.006h-.672v-4.158z"/><path d="m124.438 39.829c-.469.192-1.077.298-1.578.298-1.801 0-2.473-1.215-2.473-2.846 0-1.663.917-2.846 2.292-2.846 1.535 0 2.164 1.237 2.164 2.697v.341h-3.721c0 1.152.619 2.079 1.791 2.079.49 0 1.205-.203 1.525-.405zm-.331-2.931c0-.949-.384-1.887-1.385-1.887-.992 0-1.6.991-1.6 1.887z"/><path d="m130.513 39.051c.437.277.948.437 1.641.437.917 0 1.674-.469 1.674-1.524 0-1.461-3.411-1.642-3.411-3.593 0-1.194 1.045-1.94 2.356-1.94.362 0 .948.053 1.46.245l-.117.672c-.331-.182-.853-.277-1.354-.277-.767 0-1.609.32-1.609 1.279 0 1.493 3.411 1.503 3.411 3.678 0 1.503-1.289 2.1-2.441 2.1-.725 0-1.29-.149-1.684-.32z"/><path d="m138.69 40h-.789l-1.844-5.437h.736l1.503 4.702h.021l1.578-4.702h.703z"/><path d="m143.039 33.113h-.671v-.895h.671zm-.672 1.45h.671v5.437h-.671z"/><path d="m145.064 39.435 3.273-4.297h-3.145v-.576h3.923v.576l-3.272 4.285h3.272v.577h-4.05v-.565z"/><path d="m150.628 39.435 3.273-4.297h-3.145v-.576h3.923v.576l-3.272 4.285h3.272v.577h-4.05v-.565z"/><path d="m160.339 39.829c-.469.192-1.077.298-1.578.298-1.801 0-2.473-1.215-2.473-2.846 0-1.663.917-2.846 2.292-2.846 1.535 0 2.164 1.237 2.164 2.697v.341h-3.721c0 1.152.619 2.079 1.791 2.079.49 0 1.205-.203 1.525-.405zm-.331-2.931c0-.949-.384-1.887-1.385-1.887-.992 0-1.599.991-1.599 1.887z"/><path d="m162.855 35.778c0-.597 0-.821-.042-1.215h.671v1.045h.021c.245-.607.704-1.172 1.397-1.172.16 0 .352.032.469.064v.704c-.139-.043-.32-.064-.49-.064-1.066 0-1.354 1.194-1.354 2.175v2.685h-.671v-4.222z"/><path d="m170.359 39.126h-.022c-.298.65-1.055 1.002-1.727 1.002-1.545 0-1.79-1.045-1.79-1.535 0-1.822 1.94-1.907 3.347-1.907h.128v-.277c0-.928-.331-1.396-1.237-1.396-.565 0-1.098.128-1.599.447v-.65c.416-.203 1.119-.373 1.599-.373 1.343 0 1.908.608 1.908 2.025v2.399c0 .437 0 .767.053 1.14h-.661v-.875zm-.064-1.866h-.192c-1.162 0-2.548.118-2.548 1.312 0 .714.512.981 1.13.981 1.577 0 1.61-1.375 1.61-1.962z"/><path d="m48.498 48.093c-.469-.245-1.141-.32-1.663-.32-1.929 0-3.017 1.365-3.017 3.209 0 1.876 1.056 3.208 3.017 3.208.49 0 1.237-.064 1.663-.32l.042.64c-.405.246-1.236.32-1.706.32-2.345 0-3.752-1.545-3.752-3.848 0-2.26 1.45-3.848 3.752-3.848.437 0 1.322.074 1.706.277z"/><path d="m53.113 49.138c1.759 0 2.538 1.364 2.538 2.846s-.778 2.846-2.538 2.846c-1.758 0-2.537-1.364-2.537-2.846s.779-2.846 2.537-2.846zm0 5.117c1.173 0 1.801-1.013 1.801-2.271s-.628-2.27-1.801-2.27c-1.172 0-1.801 1.013-1.801 2.27 0 1.258.629 2.271 1.801 2.271z"/><path d="m57.75 50.545c0-.416 0-.842-.042-1.28h.65v.97h.022c.223-.49.628-1.098 1.758-1.098 1.344 0 1.855.896 1.855 2.089v3.475h-.671v-3.305c0-1.023-.362-1.684-1.29-1.684-1.226 0-1.61 1.077-1.61 1.982v3.006h-.672z"/><path d="m64.967 49.841h-1.098v-.576h1.098v-.394c0-1.14.042-2.292 1.439-2.292.214 0 .501.032.629.107l-.042.586c-.139-.075-.341-.117-.533-.117-.916 0-.821.991-.821 1.641v.469h1.226v.576h-1.226v4.861h-.671v-4.861z"/><path d="m72.536 54.532c-.469.192-1.077.298-1.578.298-1.801 0-2.473-1.215-2.473-2.846 0-1.663.917-2.846 2.292-2.846 1.535 0 2.164 1.237 2.164 2.697v.341h-3.721c0 1.151.619 2.079 1.791 2.079.49 0 1.205-.202 1.525-.405zm-.331-2.932c0-.949-.384-1.887-1.385-1.887-.992 0-1.6.991-1.6 1.887z"/><path d="m79.358 54.703h-.672v-.864h-.021c-.363.693-.917.991-1.695.991-1.492 0-2.238-1.236-2.238-2.846 0-1.652.64-2.846 2.238-2.846 1.066 0 1.599.778 1.695 1.045h.021v-3.475h.672zm-2.282-.448c1.194 0 1.609-1.28 1.609-2.271s-.416-2.27-1.609-2.27c-1.279 0-1.61 1.215-1.61 2.27 0 1.056.331 2.271 1.61 2.271z"/><path d="m85.455 54.532c-.469.192-1.077.298-1.578.298-1.801 0-2.473-1.215-2.473-2.846 0-1.663.917-2.846 2.292-2.846 1.535 0 2.164 1.237 2.164 2.697v.341h-3.721c0 1.151.619 2.079 1.791 2.079.49 0 1.205-.202 1.525-.405zm-.331-2.932c0-.949-.384-1.887-1.385-1.887-.992 0-1.599.991-1.599 1.887z"/><path d="m87.971 50.481c0-.597 0-.821-.042-1.215h.671v1.045h.021c.245-.607.704-1.172 1.397-1.172.16 0 .352.032.469.064v.704c-.139-.043-.32-.064-.49-.064-1.066 0-1.354 1.194-1.354 2.175v2.687h-.672z"/><path d="m95.475 53.828h-.022c-.298.65-1.055 1.002-1.727 1.002-1.545 0-1.79-1.045-1.79-1.535 0-1.822 1.94-1.908 3.347-1.908h.128v-.277c0-.927-.331-1.396-1.237-1.396-.565 0-1.098.128-1.599.447v-.65c.416-.203 1.119-.373 1.599-.373 1.343 0 1.908.608 1.908 2.026v2.399c0 .437 0 .767.053 1.14h-.661v-.875zm-.064-1.865h-.192c-1.162 0-2.548.118-2.548 1.312 0 .714.512.981 1.13.981 1.577 0 1.61-1.375 1.61-1.962z"/><path d="m98.012 54.138 3.273-4.297h-3.145v-.576h3.923v.576l-3.272 4.285h3.272v.576h-4.05v-.564z"/><path d="m104.749 47.816h-.672v-.895h.672zm-.671 1.45h.672v5.437h-.672z"/><path d="m111.517 53.423c0 .416 0 .842.043 1.279h-.651v-.97h-.021c-.224.49-.629 1.097-1.759 1.097-1.343 0-1.855-.895-1.855-2.089v-3.475h.672v3.305c0 1.024.363 1.685 1.29 1.685 1.226 0 1.609-1.077 1.609-1.983v-3.006h.671v4.157z"/><path d="m114.033 50.545c0-.416 0-.842-.042-1.28h.65v.97h.021c.223-.49.628-1.098 1.758-1.098 1.344 0 1.855.896 1.855 2.089v3.475h-.672v-3.305c0-1.023-.362-1.684-1.289-1.684-1.226 0-1.61 1.077-1.61 1.982v3.006h-.672v-4.155z"/><path d="m124.064 53.914c.405.203.895.341 1.418.341.64 0 1.204-.352 1.204-.97 0-1.29-2.612-1.087-2.612-2.665 0-1.077.874-1.482 1.77-1.482.288 0 .864.064 1.343.245l-.064.586c-.352-.16-.831-.256-1.204-.256-.693 0-1.173.213-1.173.906 0 1.013 2.675.885 2.675 2.665 0 1.152-1.077 1.545-1.897 1.545-.522 0-1.045-.064-1.524-.255z"/><path d="m131.344 54.703h-.789l-1.844-5.437h.736l1.503 4.702h.021l1.578-4.702h.703z"/><path d="m135.694 47.816h-.671v-.895h.671zm-.672 1.45h.671v5.437h-.671z"/><path d="m137.719 54.138 3.273-4.297h-3.145v-.576h3.923v.576l-3.272 4.285h3.272v.576h-4.05v-.564z"/><path d="m143.784 50.481c0-.597 0-.821-.042-1.215h.672v1.045h.021c.245-.607.704-1.172 1.397-1.172.16 0 .352.032.469.064v.704c-.139-.043-.32-.064-.49-.064-1.066 0-1.354 1.194-1.354 2.175v2.687h-.672v-4.224z"/><path d="m151.288 53.828h-.021c-.298.65-1.055 1.002-1.727 1.002-1.546 0-1.79-1.045-1.79-1.535 0-1.822 1.94-1.908 3.347-1.908h.128v-.277c0-.927-.331-1.396-1.237-1.396-.565 0-1.098.128-1.599.447v-.65c.416-.203 1.119-.373 1.599-.373 1.343 0 1.908.608 1.908 2.026v2.399c0 .437 0 .767.053 1.14h-.661zm-.063-1.865h-.192c-1.162 0-2.548.118-2.548 1.312 0 .714.512.981 1.13.981 1.577 0 1.61-1.375 1.61-1.962z"/></g><path d="m30.989 2.827s-5.638-2.469-15.077-2.469h-.003c-9.44 0-15.079 2.469-15.079 2.469s-.505 10.933 1.635 17.115c3.78 10.87 13.442 13.923 13.442 13.923h.003.003s9.66-3.053 13.442-13.923c2.14-6.182 1.634-17.115 1.634-17.115z" fill="#f00"/><path d="m25.93 12.252v6.024h-7.028v7.028h-6.024v-7.028h-7.028v-6.024h7.028v-7.026h6.023l.001 7.026z" fill="#fff"/></svg>