<?xml version="1.0" encoding="UTF-8"?>
<svg width="152px" height="48px" enable-background="new 0 0 152 48" version="1.1" viewBox="0 0 152 48" xml:space="preserve" xmlns="http://www.w3.org/2000/svg">
<style type="text/css">
	.st0{fill:#FFFFFF;}
	.st1{fill:#10669B;}
	.st2{fill:#297FCA;}
</style>
		<g transform="translate(-50 -31)">
				<g transform="translate(50 30)">
						<g transform="translate(0 5.8333)">
							<polygon class="st0" points="20.9 3.6 20.9 8 48.8 8 48.8 32.3 35.7 32.3 35.7 37 53.7 37 53.7 3.6"/>
							<polygon class="st1" points="45 31.4 35.9 31.4 20.9 24.6 34.8 24.6"/>
							<polygon class="st2" points="20.9 24.6 34.9 24.6 34.9 9 20.9 9"/>
							<polygon class="st1" points="0.4 31.1 27.7 37.7 35.7 37.7 14.3 31.1"/>
							<polygon class="st2" points="0.4 31.1 14.3 31.1 14.3 15.5 0.4 15.5"/>
							<polyline class="st1" points="35.7 9.7 35.7 24.2 45 30.8 45 20.1 35.7 9.7"/>
							<polyline class="st1" points="35.7 32.3 20 25.2 20 18.2 15.3 15.9 15.3 30.5 35.7 37.1"/>
						</g>
				</g>
		</g>
		<path class="st0" d="m72.1 32.8v-29.4h10.5c8.4 0 14.5 5.4 14.5 14.7s-6.1 14.7-14.5 14.7h-10.5zm10.3-5.3c4.8 0 8.8-3 8.8-9.4s-4-9.4-8.8-9.4h-4.6v18.8h4.6z"/>
		<path class="st0" d="m100.6 18.2c0-9.4 7.1-15.3 15-15.3 8.1 0 12.3 5 13.5 9.7l-5.4 1.7c-0.7-2.8-3-5.9-8.1-5.9-4.4 0-9 3.2-9 9.8 0 6.3 4.4 9.7 9.1 9.7 5 0 7.5-3.3 8.3-6l5.4 1.6c-1.1 4.5-5.4 10-13.6 10-8.3 0-15.2-6-15.2-15.3z"/>
		<path class="st0" d="M133,32.8V3.4h18.6v5.4h-12.9v7.3h11.4v5.3h-11.4v11.4H133z"/>
		<path class="st0" d="m72 45.1v-4.3h1.5c1.2 0 2.1 0.8 2.1 2.1s-0.9 2.1-2.1 2.1h-1.5zm1.5-0.8c0.7 0 1.3-0.4 1.3-1.4 0-0.9-0.6-1.4-1.3-1.4h-0.7v2.7h0.7z"/>
		<path class="st0" d="m76.9 45.1v-4.3h0.8v4.3h-0.8z"/>
		<path class="st0" d="m82.5 45.1l-0.1-0.5c-0.2 0.3-0.6 0.6-1.3 0.6-1.1 0-2.1-0.9-2.1-2.2 0-1.4 1-2.2 2.2-2.2 1.1 0 1.7 0.7 1.9 1.3l-0.8 0.3c-0.1-0.4-0.5-0.8-1.2-0.8-0.6 0-1.3 0.4-1.3 1.4s0.6 1.5 1.3 1.5c0.8 0 1.1-0.5 1.1-0.8h-1.2v-0.7h2.1v2.2h-0.6z"/>
		<path class="st0" d="m84.5 45.1v-4.3h0.8v4.3h-0.8z"/>
		<path class="st0" d="M88.7,41.6v3.5h-0.8v-3.5h-1.3v-0.8H90v0.8H88.7z"/>
		<path class="st0" d="m93.3 44.1h-1.7l-0.4 1h-0.9l1.6-4.3h1l1.6 4.3h-0.9l-0.3-1zm-1.4-0.7h1.1l-0.6-1.6-0.5 1.6z"/>
		<path class="st0" d="m95.7 45.1v-4.3h0.8v3.5h1.9v0.8h-2.7z"/>
		<path class="st0" d="m101.4 43c0-1.4 1-2.2 2.2-2.2s1.8 0.7 1.9 1.4l-0.8 0.2c-0.1-0.4-0.4-0.9-1.2-0.9-0.6 0-1.3 0.5-1.3 1.4s0.6 1.4 1.3 1.4 1.1-0.5 1.2-0.9l0.8 0.2c-0.2 0.7-0.8 1.4-2 1.4-1.1 0.2-2.1-0.7-2.1-2z"/>
		<path class="st0" d="m109.1 44.1h-1.7l-0.4 1h-0.9l1.6-4.3h1l1.6 4.3h-0.9l-0.3-1zm-1.4-0.7h1.2l-0.6-1.6-0.6 1.6z"/>
		<path class="st0" d="m112.7 43.5h-0.4v1.6h-0.8v-4.3h1.7c0.8 0 1.4 0.6 1.4 1.3 0 0.6-0.3 1-0.9 1.2l0.9 1.7h-0.9l-1-1.5zm0.3-0.8c0.4 0 0.7-0.2 0.7-0.6s-0.2-0.6-0.7-0.6h-0.7v1.2h0.7z"/>
		<path class="st0" d="m118.9 45.1l-0.1-0.5c-0.2 0.3-0.6 0.6-1.3 0.6-1.1 0-2.1-0.8-2.1-2.2s1-2.2 2.2-2.2c1.1 0 1.7 0.7 1.9 1.3l-0.8 0.3c-0.1-0.4-0.5-0.8-1.2-0.8-0.6 0-1.3 0.4-1.3 1.4s0.6 1.5 1.3 1.5c0.8 0 1.1-0.5 1.1-0.8h-1.3v-0.7h2.1v2.2h-0.5z"/>
		<path class="st0" d="m122.9 40.8c1.2 0 2.2 0.8 2.2 2.2s-1 2.2-2.2 2.2-2.2-0.8-2.2-2.2c0.1-1.4 1.1-2.2 2.2-2.2zm0 3.6c0.7 0 1.3-0.5 1.3-1.4s-0.7-1.4-1.3-1.4c-0.7 0-1.3 0.5-1.3 1.4s0.7 1.4 1.3 1.4z"/>
		<path class="st0" d="m128.4 45.1v-4.3h2.7v0.8h-1.9v1h1.7v0.8h-1.6v1.7h-0.9z"/>
		<path class="st0" d="m134.3 40.8c1.2 0 2.2 0.8 2.2 2.2s-1 2.2-2.2 2.2-2.2-0.8-2.2-2.2 1-2.2 2.2-2.2zm0 3.6c0.7 0 1.3-0.5 1.3-1.4s-0.7-1.4-1.3-1.4c-0.7 0-1.3 0.5-1.3 1.4s0.6 1.4 1.3 1.4z"/>
		<path class="st0" d="m139 43.5h-0.4v1.6h-0.8v-4.3h1.7c0.8 0 1.4 0.6 1.4 1.3 0 0.6-0.3 1-0.9 1.2l0.9 1.7h-0.9l-1-1.5zm0.3-0.8c0.4 0 0.7-0.2 0.7-0.6s-0.2-0.6-0.7-0.6h-0.7v1.2h0.7z"/>
		<path class="st0" d="m142 43.6v-2.7h0.8v2.7c0 0.6 0.3 0.9 0.8 0.9s0.8-0.3 0.8-0.9v-2.7h0.8v2.7c0 1-0.7 1.6-1.6 1.6s-1.6-0.6-1.6-1.6z"/>
		<path class="st0" d="m150.7 45.1v-3l-1.2 3h-0.7l-1.2-3v3h-0.8v-4.3h1.1l1.3 3.1 1.2-3.1h1.1v4.3h-0.8z"/>
</svg>