<svg viewBox="0 0 24 24" xmlns="http://www.w3.org/2000/svg"><path d="m23.75 12.952a1.25 1.25 0 0 0 -1.25-1.252h-8.936a.492.492 0 0 1 -.282-.09c-.722-.513-1.482-.981-2.218-1.432-2.8-1.715-4.5-2.9-4.5-4.863 0-2.235 2.207-2.569 3.523-2.569a4.54 4.54 0 0 1 3.081.764 2.662 2.662 0 0 1 .447 1.99v.3a1.25 1.25 0 1 0 2.5 0v-.268a4.887 4.887 0 0 0 -1.165-3.777c-1.001-1.014-2.591-1.507-4.859-1.507-3.658 0-6.023 1.989-6.023 5.069 0 2.773 1.892 4.512 4 5.927a.25.25 0 0 1 -.139.458h-6.429a1.25 1.25 0 0 0 0 2.5h10.977a.251.251 0 0 1 .159.058 4.339 4.339 0 0 1 1.932 3.466c0 3.268-3.426 3.522-4.477 3.522-1.814 0-3.139-.405-3.834-1.173a3.394 3.394 0 0 1 -.65-2.7 1.25 1.25 0 0 0 -2.488-.246 5.76 5.76 0 0 0 1.281 4.624c1.2 1.324 3.114 2 5.688 2 4.174 0 6.977-2.42 6.977-6.022a6.059 6.059 0 0 0 -.849-3.147.25.25 0 0 1 .216-.377h6.068a1.25 1.25 0 0 0 1.25-1.255z"/></svg>