<svg enable-background="new 0 0 152 48" height="48" viewBox="0 0 152 48" width="152" xmlns="http://www.w3.org/2000/svg"><g transform="translate(0 4.8333)"><path d="m20.9 3.6v4.4h27.9v24.3h-13.1v4.7h18v-33.4z" fill="#fff"/><path d="m45 31.4h-9.1l-15-6.8h13.9z" fill="#10669b"/><path d="m20.9 24.6h14v-15.6h-14z" fill="#297fca"/><path d="m.4 31.1 27.3 6.6h8l-21.4-6.6z" fill="#10669b"/><path d="m.4 31.1h13.9v-15.6h-13.9z" fill="#297fca"/><g fill="#10669b"><path d="m35.7 9.7v14.5l9.3 6.6v-10.7z"/><path d="m35.7 32.3-15.7-7.1v-7l-4.7-2.3v14.6l20.4 6.6"/></g></g><g fill="#fff"><path d="m72.1 32.8v-29.4h10.5c8.4 0 14.5 5.4 14.5 14.7s-6.1 14.7-14.5 14.7zm10.3-5.3c4.8 0 8.8-3 8.8-9.4s-4-9.4-8.8-9.4h-4.6v18.8z"/><path d="m100.6 18.2c0-9.4 7.1-15.3 15-15.3 8.1 0 12.3 5 13.5 9.7l-5.4 1.7c-.7-2.8-3-5.9-8.1-5.9-4.4 0-9 3.2-9 9.8 0 6.3 4.4 9.7 9.1 9.7 5 0 7.5-3.3 8.3-6l5.4 1.6c-1.1 4.5-5.4 10-13.6 10-8.3 0-15.2-6-15.2-15.3z"/><path d="m133 32.8v-29.4h18.6v5.4h-12.9v7.3h11.4v5.3h-11.4v11.4z"/><path d="m72 45.1v-4.3h1.5c1.2 0 2.1.8 2.1 2.1s-.9 2.1-2.1 2.1h-1.5zm1.5-.8c.7 0 1.3-.4 1.3-1.4 0-.9-.6-1.4-1.3-1.4h-.7v2.7h.7z"/><path d="m76.9 45.1v-4.3h.8v4.3z"/><path d="m82.5 45.1-.1-.5c-.2.3-.6.6-1.3.6-1.1 0-2.1-.9-2.1-2.2 0-1.4 1-2.2 2.2-2.2 1.1 0 1.7.7 1.9 1.3l-.8.3c-.1-.4-.5-.8-1.2-.8-.6 0-1.3.4-1.3 1.4s.6 1.5 1.3 1.5c.8 0 1.1-.5 1.1-.8h-1.2v-.7h2.1v2.2h-.6z"/><path d="m84.5 45.1v-4.3h.8v4.3z"/><path d="m88.7 41.6v3.5h-.8v-3.5h-1.3v-.8h3.4v.8z"/><path d="m93.3 44.1h-1.7l-.4 1h-.9l1.6-4.3h1l1.6 4.3h-.9zm-1.4-.7h1.1l-.6-1.6z"/><path d="m95.7 45.1v-4.3h.8v3.5h1.9v.8z"/><path d="m101.4 43c0-1.4 1-2.2 2.2-2.2s1.8.7 1.9 1.4l-.8.2c-.1-.4-.4-.9-1.2-.9-.6 0-1.3.5-1.3 1.4s.6 1.4 1.3 1.4 1.1-.5 1.2-.9l.8.2c-.2.7-.8 1.4-2 1.4-1.1.2-2.1-.7-2.1-2z"/><path d="m109.1 44.1h-1.7l-.4 1h-.9l1.6-4.3h1l1.6 4.3h-.9zm-1.4-.7h1.2l-.6-1.6z"/><path d="m112.7 43.5h-.4v1.6h-.8v-4.3h1.7c.8 0 1.4.6 1.4 1.3 0 .6-.3 1-.9 1.2l.9 1.7h-.9zm.3-.8c.4 0 .7-.2.7-.6s-.2-.6-.7-.6h-.7v1.2z"/><path d="m118.9 45.1-.1-.5c-.2.3-.6.6-1.3.6-1.1 0-2.1-.8-2.1-2.2s1-2.2 2.2-2.2c1.1 0 1.7.7 1.9 1.3l-.8.3c-.1-.4-.5-.8-1.2-.8-.6 0-1.3.4-1.3 1.4s.6 1.5 1.3 1.5c.8 0 1.1-.5 1.1-.8h-1.3v-.7h2.1v2.2h-.5z"/><path d="m122.9 40.8c1.2 0 2.2.8 2.2 2.2s-1 2.2-2.2 2.2-2.2-.8-2.2-2.2c.1-1.4 1.1-2.2 2.2-2.2zm0 3.6c.7 0 1.3-.5 1.3-1.4s-.7-1.4-1.3-1.4c-.7 0-1.3.5-1.3 1.4s.7 1.4 1.3 1.4z"/><path d="m128.4 45.1v-4.3h2.7v.8h-1.9v1h1.7v.8h-1.6v1.7z"/><path d="m134.3 40.8c1.2 0 2.2.8 2.2 2.2s-1 2.2-2.2 2.2-2.2-.8-2.2-2.2 1-2.2 2.2-2.2zm0 3.6c.7 0 1.3-.5 1.3-1.4s-.7-1.4-1.3-1.4c-.7 0-1.3.5-1.3 1.4s.6 1.4 1.3 1.4z"/><path d="m139 43.5h-.4v1.6h-.8v-4.3h1.7c.8 0 1.4.6 1.4 1.3 0 .6-.3 1-.9 1.2l.9 1.7h-.9zm.3-.8c.4 0 .7-.2.7-.6s-.2-.6-.7-.6h-.7v1.2z"/><path d="m142 43.6v-2.7h.8v2.7c0 .6.3.9.8.9s.8-.3.8-.9v-2.7h.8v2.7c0 1-.7 1.6-1.6 1.6s-1.6-.6-1.6-1.6z"/><path d="m150.7 45.1v-3l-1.2 3h-.7l-1.2-3v3h-.8v-4.3h1.1l1.3 3.1 1.2-3.1h1.1v4.3z"/></g></svg>